<svg width="24" height="24" viewBox="0 0 24 24" fill="none" xmlns="http://www.w3.org/2000/svg">
<path fill-rule="evenodd" clip-rule="evenodd" d="M12.6 1.5C13.0965 1.5 13.5 1.9035 13.5 2.4V10.5H21.6C22.0965 10.5 22.5 10.9035 22.5 11.4V12.6C22.5 13.0965 22.0965 13.5 21.6 13.5H13.5V21.6C13.5 22.0965 13.0965 22.5 12.6 22.5H11.4C10.9035 22.5 10.5 22.0965 10.5 21.6V13.5H2.4C1.9035 13.5 1.5 13.0965 1.5 12.6V11.4C1.5 10.9035 1.9035 10.5 2.4 10.5H10.5V2.4C10.5 1.9035 10.9035 1.5 11.4 1.5H12.6V1.5Z" fill="#160934"/>
</svg>
