<svg width="28" height="34" viewBox="0 0 28 34" fill="none" xmlns="http://www.w3.org/2000/svg">
<path fill-rule="evenodd" clip-rule="evenodd" d="M9.90642 13.6062L6.04561 15.0936C5.05319 15.3634 4.02983 14.7657 3.76378 13.7597C3.60662 13.1645 3.74645 12.5618 4.09294 12.1114L12.6572 1.30735C12.9975 0.845786 13.5408 0.547564 14.1521 0.547563C14.7634 0.547564 15.3066 0.845786 15.6469 1.30735L24.0936 11.682C24.6146 12.1411 24.8633 12.8774 24.6727 13.5976C24.4067 14.6036 23.3846 15.2025 22.3897 14.9328L18.3878 13.4503L15.9612 31.7161C15.8671 32.5205 15.1927 33.1701 14.2461 33.1713C13.2995 33.1701 12.6275 32.5328 12.531 31.7161L9.90642 13.6062Z" fill="#19D496"/>
</svg>
