<svg width="28" height="28" viewBox="0 0 28 28" fill="none" xmlns="http://www.w3.org/2000/svg">
<g clip-path="url(#clip0_6547_11679)">
<path fill-rule="evenodd" clip-rule="evenodd" d="M3.70657 8.76067L3.85183 8.39324C5.03483 5.43575 7.90134 3.49316 11.0881 3.49316H16.905C20.0918 3.49316 22.9583 5.43575 24.1413 8.39324L24.2865 8.76067H24.2953C24.3618 8.74317 24.43 8.74315 24.4965 8.74315H27.9965V8.76067C27.9965 9.67067 27.6291 10.563 26.9746 11.228C26.7086 11.4905 26.404 11.7007 26.0733 11.8757L26.089 11.8932C26.3742 12.1032 26.635 12.3481 26.866 12.6281C27.321 13.1706 27.6553 13.8182 27.8373 14.5007C27.9423 14.9032 27.9948 15.3231 27.9965 15.7431V20.9931H26.2465V24.4931H20.9965V20.9931H6.99657V24.4931H1.74658V20.9931H-0.00341797V15.7431C-0.00341797 14.1856 0.731579 12.7682 1.91983 11.8757C1.58908 11.7007 1.28455 11.4905 1.01855 11.228C0.364054 10.563 -0.00341797 9.67067 -0.00341797 8.76067V8.74315H3.49657C3.56832 8.74315 3.63832 8.74317 3.70657 8.76067ZM26.2465 13.9931H23.835C23.0825 13.9931 22.3597 14.2906 21.8277 14.8156C21.2957 15.3581 20.9965 16.0758 20.9965 16.8283V17.4931H22.7465C24.6715 17.4931 26.2343 15.9357 26.2465 14.0107V13.9931ZM4.15806 13.9931H1.74658C1.74658 15.9356 3.3128 17.4931 5.24305 17.4931C6.20904 17.4931 6.99657 17.4931 6.99657 17.4931V16.8283C6.99657 16.0758 6.69736 15.3581 6.16536 14.8156C5.63336 14.2906 4.91056 13.9931 4.15806 13.9931ZM11.0881 6.99316C9.33283 6.99316 7.75431 8.06072 7.10156 9.68822L6.78134 10.4931H21.2118L20.8915 9.68822C20.741 9.32072 20.5381 8.97055 20.2896 8.63805C20.0096 8.28805 19.6736 7.97302 19.2956 7.72802C18.9228 7.46552 18.5115 7.27331 18.081 7.15081C17.6978 7.04581 17.3023 6.99316 16.905 6.99316H11.0881Z" fill="#19D496"/>
</g>
<defs>
<clipPath id="clip0_6547_11679">
<rect width="28" height="28" fill="white"/>
</clipPath>
</defs>
</svg>
