<svg width="32" height="32" viewBox="0 0 32 32" fill="none" xmlns="http://www.w3.org/2000/svg">
<path fill-rule="evenodd" clip-rule="evenodd" d="M28 30H4C1.792 30 0 28.208 0 26V25.5C0 24.672 0.672 24 1.5 24H2V8C2 5.792 3.792 4 6 4H26C28.208 4 30 5.792 30 8V24H30.5C31.328 24 32 24.672 32 25.5V26C32 28.208 30.208 30 28 30ZM18.5 24H13.5C12.672 24 12 24.672 12 25.5C12 26.328 12.672 27 13.5 27H18.5C19.328 27 20 26.328 20 25.5C20 24.672 19.328 24 18.5 24ZM26 8.856C26 8.384 25.616 8 25.144 8H6.856C6.384 8 6 8.384 6 8.856V21.144C6 21.616 6.384 22 6.856 22H25.144C25.616 22 26 21.616 26 21.144V8.856Z" fill="#19D496"/>
</svg>
