<svg width="32" height="32" viewBox="0 0 32 32" fill="none" xmlns="http://www.w3.org/2000/svg">
<path fill-rule="evenodd" clip-rule="evenodd" d="M25.232 18.4138L29.994 21.3378C30.328 21.5438 30.532 21.9058 30.532 22.2978C30.532 22.6898 30.328 23.0518 29.994 23.2578C27.088 25.0418 20.87 28.8618 17.796 30.7518C16.694 31.4278 15.306 31.4278 14.204 30.7518C11.13 28.8618 4.912 25.0418 2.006 23.2578C1.672 23.0518 1.468 22.6898 1.468 22.2978C1.468 21.9058 1.672 21.5438 2.006 21.3378L6.768 18.4138L13.682 22.6618C15.104 23.5338 16.896 23.5338 18.318 22.6618L25.232 18.4138ZM17.796 1.84391C16.694 1.16791 15.306 1.16791 14.204 1.84391C11.13 3.73191 4.912 7.55391 2.006 9.33791C1.672 9.54391 1.468 9.90591 1.468 10.2979C1.468 10.6899 1.672 11.0519 2.006 11.2579C4.912 13.0419 11.13 16.8619 14.204 18.7519C15.306 19.4279 16.694 19.4279 17.796 18.7519C20.87 16.8619 27.088 13.0419 29.994 11.2579C30.328 11.0519 30.532 10.6899 30.532 10.2979C30.532 9.90591 30.328 9.54391 29.994 9.33791C27.088 7.55391 20.87 3.73191 17.796 1.84391Z" fill="#19D496"/>
</svg>
