<svg width="28" height="28" viewBox="0 0 28 28" fill="none" xmlns="http://www.w3.org/2000/svg">
<path fill-rule="evenodd" clip-rule="evenodd" d="M15.1785 0.611589C15.6038 0.116233 16.2882 -0.120068 16.9604 0.060221C17.8933 0.310524 18.4482 1.27148 18.1979 2.20443L15.9574 10.4995H22.7541C23.7203 10.4995 24.5045 11.2836 24.5045 12.2498C24.5045 12.6769 24.3522 13.0673 24.0984 13.3718L12.8207 27.3275C12.4024 27.8632 11.6882 28.1275 10.9881 27.9402C10.0552 27.6916 9.50028 26.7307 9.75059 25.7977L11.9911 17.5009H5.25037C4.28417 17.5009 3.5 16.7168 3.5 15.7506C3.5 15.3287 3.64878 14.9419 3.89733 14.6408L15.1015 0.706109C15.126 0.672852 15.1522 0.641345 15.1785 0.611589Z" fill="#19D496"/>
</svg>
