<svg width="150" height="40" viewBox="0 0 150 40" fill="none" xmlns="http://www.w3.org/2000/svg">
<g clip-path="url(#clip0_6547_11584)">
<path d="M41.7514 39.1482V37.4375H42.5063C42.696 37.4375 42.847 37.4831 42.9476 37.5706C43.0483 37.658 43.1025 37.7872 43.1025 37.9469C43.1025 38.0762 43.0677 38.1788 43.0018 38.2624C42.936 38.3461 42.8354 38.4031 42.7115 38.4297C42.7967 38.4563 42.8664 38.5171 42.9205 38.616L43.2109 39.1444H42.8625L42.5605 38.597C42.5296 38.5438 42.4947 38.5057 42.456 38.4867C42.4173 38.4677 42.3631 38.4563 42.3011 38.4563H42.065V39.1406H41.7476L41.7514 39.1482ZM42.0689 38.232H42.456C42.6883 38.232 42.8005 38.1408 42.8005 37.9545C42.8005 37.7682 42.6844 37.6808 42.456 37.6808H42.0689V38.232Z" fill="black"/>
<path d="M42.425 39.9999C41.4882 39.9999 40.7255 39.251 40.7255 38.331C40.7255 37.411 41.4882 36.6621 42.425 36.6621C43.3618 36.6621 44.1245 37.411 44.1245 38.331C44.1245 39.251 43.3618 39.9999 42.425 39.9999ZM42.425 36.9624C41.6546 36.9624 41.0275 37.5783 41.0275 38.3348C41.0275 39.0913 41.6546 39.7072 42.425 39.7072C43.1954 39.7072 43.8225 39.0913 43.8225 38.3348C43.8225 37.5783 43.1954 36.9624 42.425 36.9624Z" fill="black"/>
<path d="M0 1.66508V38.3349C0 39.2549 0.758764 40 1.69561 40H20.3628C22.7397 40 25.0276 39.6008 27.1491 38.8595C29.6808 37.9814 31.9804 36.628 33.9354 34.9059C34.5006 34.4155 35.0348 33.8909 35.5342 33.3359C37.2917 31.4123 38.6699 29.1542 39.5641 26.6717C39.9474 25.6035 40.2455 24.4858 40.439 23.3378C40.6249 22.2543 40.7216 21.1405 40.7216 20.0038V1.66508C40.7216 0.745106 39.9629 0 39.026 0H1.69561C0.758764 0 0 0.745106 0 1.66508ZM18.6672 33.3321H8.4819C7.54506 33.3321 6.7863 32.587 6.7863 31.667V28.333C6.7863 27.413 7.54506 26.6679 8.4819 26.6679H18.6672C19.604 26.6679 20.3628 27.413 20.3628 28.333V31.667C20.3628 32.587 19.604 33.3321 18.6672 33.3321ZM25.4534 23.334H8.48577C7.54893 23.334 6.79017 22.5889 6.79017 21.6689V18.3349C6.79017 17.4149 7.54893 16.6698 8.48577 16.6698H25.4573C26.3942 16.6698 27.1529 17.4149 27.1529 18.3349V21.6689C27.1529 22.5889 26.3942 23.334 25.4573 23.334H25.4534ZM32.2397 13.3321H8.48577C7.54893 13.3321 6.79017 12.587 6.79017 11.667V8.33302C6.79017 7.41304 7.54893 6.66793 8.48577 6.66793H32.2436C33.1805 6.66793 33.9392 7.41304 33.9392 8.33302V11.667C33.9392 12.587 33.1805 13.3321 32.2436 13.3321H32.2397Z" fill="url(#paint0_linear_6547_11584)"/>
<path d="M59.2765 19.943C58.2429 19.943 57.3061 19.8099 56.4737 19.5476C55.6376 19.2853 54.9175 18.9013 54.3058 18.3995L54.8478 17.1868C55.4827 17.6658 56.1486 18.0194 56.8493 18.2551C57.5461 18.487 58.3552 18.6048 59.2804 18.6048C60.4031 18.6048 61.2315 18.3995 61.7735 17.989C62.3155 17.5784 62.5864 17.0348 62.5864 16.3619C62.5864 15.8221 62.389 15.3925 61.998 15.0732C61.607 14.7538 60.9489 14.5029 60.0275 14.3205L58.0842 13.9327C56.9112 13.6856 56.0363 13.2864 55.4595 12.7276C54.8788 12.1688 54.5923 11.4237 54.5923 10.4923C54.5923 9.72059 54.7936 9.04771 55.2001 8.46987C55.6066 7.89204 56.1679 7.44725 56.8918 7.12792C57.6158 6.80859 58.4481 6.64893 59.3965 6.64893C60.283 6.64893 61.1038 6.78578 61.8625 7.0633C62.6213 7.34081 63.2639 7.73617 63.7865 8.24938L63.2446 9.42786C62.6832 8.92606 62.0909 8.56111 61.4677 8.33302C60.8444 8.10492 60.1476 7.99088 59.3733 7.99088C58.39 7.99088 57.6041 8.21517 57.0196 8.66375C56.435 9.11234 56.1408 9.70158 56.1408 10.4391C56.1408 11.0283 56.3228 11.4921 56.6905 11.8381C57.0583 12.1802 57.6583 12.4311 58.4945 12.5908L60.4379 12.9937C61.6961 13.2522 62.629 13.64 63.2329 14.1608C63.8369 14.6816 64.1388 15.3887 64.1388 16.2859C64.1388 17.0082 63.9414 17.6468 63.5504 18.1981C63.1594 18.7493 62.5981 19.1789 61.8703 19.4868C61.1425 19.7947 60.2792 19.9468 59.2804 19.9468L59.2765 19.943Z" fill="black"/>
<path d="M66.3377 19.7757V10.8383H67.8126V12.3475C68.0875 11.8077 68.4669 11.3933 68.9508 11.1082C69.4386 10.8193 70.0038 10.6748 70.6503 10.6748C72.071 10.6748 72.9808 11.2831 73.3795 12.4958C73.6544 11.9331 74.057 11.4883 74.5951 11.1614C75.1293 10.8383 75.7487 10.6748 76.4455 10.6748C78.4624 10.6748 79.4728 11.8495 79.4728 14.2065V19.7795H77.9592V14.2825C77.9592 13.4613 77.8121 12.8569 77.5179 12.4729C77.2236 12.089 76.7436 11.8951 76.07 11.8951C75.3345 11.8951 74.7499 12.1536 74.3125 12.6668C73.875 13.18 73.6582 13.8681 73.6582 14.7273V19.7833H72.1446V14.2863C72.1446 13.4651 71.9975 12.8607 71.7032 12.4767C71.409 12.0928 70.929 11.8989 70.2554 11.8989C69.5082 11.8989 68.9198 12.1574 68.4901 12.6706C68.0604 13.1838 67.8436 13.8719 67.8436 14.7311V19.7871H66.33L66.3377 19.7757Z" fill="black"/>
<path d="M85.1597 19.9431C84.5364 19.9431 83.979 19.8253 83.4873 19.5858C82.9957 19.3463 82.6047 19.0193 82.3182 18.6012C82.0317 18.183 81.8885 17.7192 81.8885 17.2022C81.8885 16.5521 82.0588 16.0389 82.4034 15.6588C82.7479 15.2786 83.3131 15.0049 84.1028 14.8414C84.8926 14.6741 85.9727 14.5943 87.3469 14.5943H87.9431V14.0241C87.9431 13.2638 87.7844 12.7163 87.467 12.378C87.1495 12.0397 86.6424 11.8724 85.9417 11.8724C85.392 11.8724 84.8655 11.9484 84.3545 12.1005C83.8435 12.2526 83.3208 12.5035 82.7827 12.8456L82.2601 11.7622C82.7324 11.4314 83.3092 11.1691 83.9906 10.9714C84.668 10.7738 85.3184 10.6787 85.9417 10.6787C87.1147 10.6787 87.9818 10.96 88.5509 11.5227C89.1161 12.0853 89.4026 12.9634 89.4026 14.1533V19.7796H87.9818V18.2362C87.7457 18.7646 87.3818 19.179 86.8901 19.4869C86.3985 19.7948 85.8217 19.9469 85.1636 19.9469L85.1597 19.9431ZM85.4036 18.8216C86.1507 18.8216 86.7624 18.5669 87.2347 18.0575C87.707 17.5481 87.9431 16.9019 87.9431 16.1187V15.5675H87.3624C86.352 15.5675 85.5584 15.6131 84.9777 15.7044C84.3971 15.7956 83.9944 15.9553 83.7622 16.1834C83.5299 16.4115 83.4176 16.7194 83.4176 17.1109C83.4176 17.6128 83.5957 18.0233 83.9519 18.3427C84.308 18.662 84.7881 18.8216 85.3997 18.8216H85.4036Z" fill="black"/>
<path d="M92.2053 19.7757V10.8382H93.6803V12.4387C94.168 11.359 95.163 10.766 96.6727 10.6558L97.2147 10.6025L97.327 11.8913L96.3747 12.0015C95.5152 12.0737 94.861 12.3399 94.4119 12.7998C93.9629 13.2598 93.7383 13.8871 93.7383 14.6854V19.7795H92.2053V19.7757Z" fill="black"/>
<path d="M103.025 19.9429C101.953 19.9429 101.152 19.6654 100.614 19.1066C100.076 18.5478 99.8085 17.7418 99.8085 16.6888V12.0015H98.0316V10.842H99.8085V8.10107H101.322V10.842H104.198V12.0015H101.322V16.5443C101.322 17.2438 101.473 17.7722 101.771 18.1334C102.069 18.4945 102.557 18.677 103.231 18.677C103.428 18.677 103.629 18.6542 103.827 18.6048C104.024 18.5554 104.206 18.5059 104.369 18.4565L104.632 19.597C104.469 19.6806 104.233 19.7643 103.924 19.8365C103.614 19.9087 103.312 19.9467 103.025 19.9467V19.9429Z" fill="black"/>
<path d="M105.828 19.7758V6.8125H114.724V9.03641H108.724V12.1993H114.314V14.4232H108.724V19.7758H105.828Z" fill="black"/>
<path d="M119.656 19.9773C118.472 19.9773 117.608 19.6732 117.059 19.0687C116.509 18.4605 116.238 17.5595 116.238 16.3544V6.8125H119.06V16.2442C119.06 17.225 119.501 17.7154 120.388 17.7154C120.524 17.7154 120.659 17.7078 120.791 17.6964C120.922 17.685 121.05 17.6583 121.174 17.6241L121.135 19.7758C120.663 19.9089 120.171 19.9773 119.66 19.9773H119.656Z" fill="black"/>
<path d="M127.132 19.9772C126.048 19.9772 125.115 19.7833 124.337 19.3994C123.559 19.0116 122.959 18.468 122.54 17.7647C122.122 17.0614 121.913 16.2289 121.913 15.2747C121.913 14.3205 122.115 13.526 122.521 12.8189C122.928 12.1156 123.481 11.5606 124.186 11.1652C124.89 10.766 125.703 10.5684 126.625 10.5684C127.956 10.5684 129.017 10.9827 129.803 11.8077C130.589 12.6364 130.98 13.7541 130.98 15.1644V15.8639H124.608C124.708 16.5748 124.972 17.0918 125.401 17.4188C125.831 17.7457 126.427 17.9054 127.186 17.9054C127.685 17.9054 128.189 17.8331 128.7 17.6849C129.211 17.5366 129.671 17.3123 130.082 17.0044L130.829 18.8634C130.368 19.2055 129.803 19.4792 129.137 19.6807C128.471 19.8822 127.801 19.9848 127.128 19.9848L127.132 19.9772ZM126.741 12.4007C126.145 12.4007 125.661 12.5794 125.293 12.9329C124.925 13.2903 124.697 13.7845 124.612 14.4231H128.649C128.576 13.0736 127.941 12.4007 126.745 12.4007H126.741Z" fill="black"/>
<path d="M137.394 19.9772C136.31 19.9772 135.377 19.7833 134.599 19.3994C133.821 19.0116 133.221 18.468 132.803 17.7647C132.385 17.0614 132.176 16.2289 132.176 15.2747C132.176 14.3205 132.377 13.526 132.784 12.8189C133.19 12.1156 133.744 11.5606 134.448 11.1652C135.153 10.766 135.966 10.5684 136.887 10.5684C138.219 10.5684 139.28 10.9827 140.066 11.8077C140.851 12.6364 141.242 13.7541 141.242 15.1644V15.8639H134.87C134.971 16.5748 135.234 17.0918 135.664 17.4188C136.094 17.7457 136.69 17.9054 137.449 17.9054C137.948 17.9054 138.451 17.8331 138.962 17.6849C139.473 17.5366 139.934 17.3123 140.344 17.0044L141.091 18.8634C140.631 19.2055 140.066 19.4792 139.4 19.6807C138.734 19.8822 138.064 19.9848 137.391 19.9848L137.394 19.9772ZM137.003 12.4007C136.407 12.4007 135.923 12.5794 135.556 12.9329C135.188 13.2903 134.959 13.7845 134.874 14.4231H138.912C138.838 13.0736 138.203 12.4007 137.007 12.4007H137.003Z" fill="black"/>
<path d="M147.336 19.977C144.758 19.977 143.468 18.7453 143.468 16.2819V12.8263H141.73V10.7469H143.468V8.09717H146.291V10.7469H149V12.8263H146.291V16.1717C146.291 16.6849 146.411 17.0726 146.654 17.3312C146.898 17.5897 147.285 17.7189 147.824 17.7189C147.986 17.7189 148.156 17.6999 148.338 17.6619C148.52 17.6239 148.714 17.5783 148.927 17.5136L149.337 19.5361C149.074 19.6729 148.764 19.7794 148.404 19.8592C148.044 19.939 147.688 19.977 147.34 19.977H147.336Z" fill="black"/>
<path d="M57.2209 30.861V29.979H54.302V26.6641H54.9988V29.4354H56.5744V26.6641H57.2712V29.4354H57.8094V30.861H57.2132H57.2209Z" fill="black"/>
<path d="M58.6649 29.979V26.6641H59.2998V29.0666L61.127 26.6641H61.7155V29.979H61.0806V27.5802L59.2572 29.979H58.6688H58.6649Z" fill="black"/>
<path d="M64.8628 31.1993V29.4734C64.6886 29.8498 64.3866 30.0361 63.9647 30.0361C63.7208 30.0361 63.504 29.9638 63.3182 29.827C63.1323 29.6863 62.9852 29.4886 62.8846 29.2301C62.7801 28.9716 62.7297 28.6675 62.7297 28.3216C62.7297 27.9756 62.7801 27.6639 62.8846 27.4092C62.9891 27.1545 63.1323 26.9568 63.3182 26.8161C63.504 26.6755 63.7208 26.6071 63.9647 26.6071C64.1776 26.6071 64.3595 26.6565 64.5105 26.7553C64.6615 26.8542 64.7815 26.9948 64.8628 27.1697V25.1929H65.5596V27.1621C65.6409 26.9872 65.7609 26.8504 65.9119 26.7515C66.0629 26.6527 66.2448 26.6071 66.45 26.6071C66.6939 26.6071 66.9107 26.6793 67.0965 26.8161C67.2823 26.9568 67.4294 27.1545 67.534 27.4092C67.6385 27.6639 67.6888 27.968 67.6888 28.3216C67.6888 28.6751 67.6385 28.9754 67.534 29.2301C67.4294 29.4886 67.2862 29.6863 67.1004 29.827C66.9146 29.9676 66.6978 30.0361 66.45 30.0361C66.0358 30.0361 65.7377 29.8498 65.5596 29.481V31.1993H64.8628ZM64.1505 29.5152C64.3712 29.5152 64.5492 29.4164 64.6808 29.2149C64.8125 29.0172 64.8783 28.7169 64.8783 28.3178C64.8783 27.9186 64.8125 27.6297 64.6808 27.4282C64.5492 27.2267 64.375 27.1279 64.1505 27.1279C63.926 27.1279 63.7595 27.2267 63.624 27.4282C63.4885 27.6259 63.4227 27.9224 63.4227 28.3178C63.4227 28.7131 63.4885 29.0134 63.6201 29.2149C63.7517 29.4126 63.926 29.5152 64.1505 29.5152ZM66.2681 29.5152C66.4887 29.5152 66.6668 29.4164 66.7984 29.2149C66.93 29.0172 66.9959 28.7169 66.9959 28.3178C66.9959 27.9186 66.93 27.6297 66.7984 27.4282C66.6668 27.2305 66.4926 27.1279 66.2681 27.1279C66.0435 27.1279 65.8732 27.2267 65.7416 27.4282C65.6138 27.6259 65.548 27.9224 65.548 28.3178C65.548 28.7131 65.6138 29.0134 65.7416 29.2149C65.8693 29.4126 66.0474 29.5152 66.2681 29.5152Z" fill="black"/>
<path d="M68.7069 31.1995V26.6642H69.3921V27.2269C69.4889 27.0368 69.636 26.8847 69.8334 26.7707C70.0309 26.6566 70.2593 26.5996 70.5187 26.5996C70.8167 26.5996 71.08 26.6718 71.3045 26.8087C71.5291 26.9494 71.6994 27.147 71.8233 27.4017C71.9471 27.6564 72.0052 27.9606 72.0052 28.3141C72.0052 28.6677 71.9433 28.9718 71.8233 29.2303C71.6994 29.4888 71.5291 29.6865 71.3045 29.8233C71.08 29.9602 70.8206 30.0324 70.5187 30.0324C70.2709 30.0324 70.0464 29.9792 69.8528 29.8728C69.6554 29.7663 69.5083 29.6218 69.4076 29.4356V31.1957H68.7108L68.7069 31.1995ZM70.3445 29.5078C70.6348 29.5078 70.8671 29.4052 71.0374 29.2037C71.2116 28.9984 71.2968 28.7057 71.2968 28.3217C71.2968 27.9378 71.2116 27.645 71.0374 27.4436C70.8632 27.2421 70.6348 27.1432 70.3445 27.1432C70.0541 27.1432 69.8218 27.2459 69.6476 27.4436C69.4734 27.645 69.3883 27.9378 69.3883 28.3217C69.3883 28.7057 69.4734 29.0022 69.6476 29.2037C69.8218 29.409 70.0502 29.5078 70.3445 29.5078Z" fill="black"/>
<path d="M74.4867 30.0398C74.146 30.0398 73.8518 29.9676 73.6002 29.8308C73.3524 29.6901 73.1588 29.4924 73.0234 29.2377C72.8879 28.983 72.8182 28.6789 72.8182 28.3253C72.8182 27.9718 72.8879 27.6677 73.0234 27.413C73.1588 27.1583 73.3524 26.9606 73.6002 26.8199C73.8479 26.6793 74.1421 26.6108 74.4867 26.6108C74.8312 26.6108 75.11 26.6831 75.3577 26.8199C75.6055 26.9606 75.799 27.1583 75.9384 27.413C76.0778 27.6677 76.1436 27.9718 76.1436 28.3253C76.1436 28.6789 76.0739 28.983 75.9384 29.2377C75.799 29.4924 75.6055 29.6901 75.3577 29.8308C75.11 29.9714 74.8196 30.0398 74.4867 30.0398ZM74.4867 29.5114C74.7732 29.5114 75.0016 29.4088 75.1796 29.2073C75.3577 29.0058 75.4429 28.7093 75.4429 28.3253C75.4429 27.9414 75.3538 27.6487 75.1796 27.4472C75.0054 27.2457 74.7732 27.1469 74.4867 27.1469C74.2002 27.1469 73.9641 27.2495 73.7899 27.4472C73.6157 27.6487 73.5266 27.9414 73.5266 28.3253C73.5266 28.7093 73.6157 29.0058 73.7899 29.2073C73.9641 29.4126 74.1963 29.5114 74.4867 29.5114Z" fill="black"/>
<path d="M77.1578 29.979V26.6641H78.8805C79.2948 26.6641 79.6006 26.7401 79.7903 26.8922C79.98 27.0442 80.0768 27.2571 80.0768 27.5346C80.0768 27.7057 80.0264 27.8578 79.9297 27.987C79.8329 28.1163 79.6974 28.2113 79.527 28.2683C79.74 28.3177 79.9026 28.4128 80.0187 28.5534C80.1348 28.6941 80.1929 28.8614 80.1929 29.0552C80.1929 29.3404 80.0845 29.5647 79.8677 29.7319C79.6509 29.8992 79.3412 29.979 78.9425 29.979H77.1656H77.1578ZM77.8159 28.0706H78.8341C79.0238 28.0706 79.1709 28.0288 79.2715 27.9414C79.3761 27.854 79.4264 27.7361 79.4264 27.5878C79.4264 27.4396 79.3761 27.3179 79.2715 27.2343C79.167 27.1507 79.0199 27.1126 78.8341 27.1126H77.8159V28.0706ZM77.8159 29.538H78.896C79.3296 29.538 79.5464 29.367 79.5464 29.021C79.5464 28.6751 79.3296 28.5116 78.896 28.5116H77.8159V29.538Z" fill="black"/>
<path d="M82.6279 30.0398C82.2872 30.0398 81.993 29.9676 81.7414 29.8308C81.4936 29.6901 81.3001 29.4924 81.1646 29.2377C81.0291 28.983 80.9594 28.6789 80.9594 28.3253C80.9594 27.9718 81.0291 27.6677 81.1646 27.413C81.3001 27.1583 81.4936 26.9606 81.7414 26.8199C81.9892 26.6793 82.2834 26.6108 82.6279 26.6108C82.9725 26.6108 83.2512 26.6831 83.4989 26.8199C83.7467 26.9606 83.9403 27.1583 84.0796 27.413C84.219 27.6677 84.2848 27.9718 84.2848 28.3253C84.2848 28.6789 84.2151 28.983 84.0796 29.2377C83.9403 29.4924 83.7467 29.6901 83.4989 29.8308C83.2512 29.9714 82.9608 30.0398 82.6279 30.0398ZM82.6279 29.5114C82.9144 29.5114 83.1428 29.4088 83.3209 29.2073C83.4951 29.002 83.5841 28.7093 83.5841 28.3253C83.5841 27.9414 83.4951 27.6487 83.3209 27.4472C83.1467 27.2457 82.9144 27.1469 82.6279 27.1469C82.3414 27.1469 82.1053 27.2495 81.9311 27.4472C81.7569 27.6487 81.6679 27.9414 81.6679 28.3253C81.6679 28.7093 81.7569 29.0058 81.9311 29.2073C82.1053 29.4126 82.3376 29.5114 82.6279 29.5114Z" fill="black"/>
<path d="M85.2952 29.9791V26.6642H85.9301V29.0668L87.7573 26.6642H88.3457V29.9791H87.7108V27.5804L85.8875 29.9791H85.299H85.2952ZM86.8166 26.246C86.5185 26.246 86.2591 26.1662 86.0462 26.0103C85.8333 25.8544 85.6823 25.6264 85.601 25.326L85.9804 25.1968C86.0617 25.4173 86.1739 25.5807 86.3094 25.6872C86.4449 25.7898 86.6153 25.843 86.8243 25.843C87.0334 25.843 87.2076 25.7936 87.3392 25.6948C87.4708 25.5959 87.5869 25.4325 87.6876 25.2044L88.0554 25.326C87.9431 25.6492 87.7805 25.8811 87.5637 26.0255C87.3469 26.17 87.0992 26.2422 86.8166 26.2422V26.246Z" fill="black"/>
<path d="M92.0892 30.0397C91.8531 30.0397 91.644 29.9941 91.4582 29.9029C91.2724 29.8116 91.1291 29.69 91.0207 29.5379C90.9124 29.3859 90.8582 29.211 90.8582 29.0171C90.8582 28.7738 90.9201 28.5799 91.0478 28.4393C91.1756 28.2986 91.3846 28.196 91.6789 28.1352C91.9731 28.0705 92.3679 28.0401 92.8635 28.0401H93.0996V27.8653C93.0996 27.6067 93.0454 27.4205 92.9331 27.3102C92.8209 27.2 92.6389 27.1392 92.3873 27.1392C92.1937 27.1392 92.0002 27.1658 91.8066 27.2228C91.613 27.2798 91.4156 27.3672 91.2104 27.4927L90.9975 27.0099C91.1717 26.8883 91.3924 26.7894 91.6556 26.7172C91.9189 26.6449 92.1705 26.6069 92.4105 26.6069C92.8712 26.6069 93.2119 26.7134 93.4325 26.9301C93.6532 27.1468 93.7655 27.4813 93.7655 27.9375V29.9827H93.1073V29.4315C93.0261 29.6216 92.8944 29.7698 92.7202 29.8801C92.546 29.9903 92.337 30.0435 92.0931 30.0435L92.0892 30.0397ZM92.2286 29.5493C92.4763 29.5493 92.6854 29.4619 92.8518 29.2908C93.0183 29.1198 93.0996 28.9031 93.0996 28.637V28.4545H92.8712C92.5344 28.4545 92.2712 28.4697 92.0776 28.5001C91.8879 28.5305 91.7485 28.5837 91.6711 28.6598C91.5898 28.7358 91.5511 28.8384 91.5511 28.9677C91.5511 29.1388 91.613 29.2794 91.7292 29.3859C91.8492 29.4923 92.0157 29.5455 92.2286 29.5455V29.5493Z" fill="black"/>
<path d="M94.954 29.979V26.6641H96.6767C97.0909 26.6641 97.3967 26.7401 97.5864 26.8922C97.7761 27.0442 97.8729 27.2571 97.8729 27.5346C97.8729 27.7057 97.8226 27.8578 97.7258 27.987C97.6251 28.1163 97.4935 28.2113 97.3232 28.2683C97.5361 28.3177 97.6987 28.4128 97.8148 28.5534C97.931 28.6941 97.989 28.8614 97.989 29.0552C97.989 29.3404 97.8806 29.5647 97.6639 29.7319C97.4471 29.8992 97.1374 29.979 96.7386 29.979H94.9617H94.954ZM95.6121 28.0706H96.6302C96.8199 28.0706 96.967 28.0288 97.0677 27.9414C97.1722 27.854 97.2225 27.7361 97.2225 27.5878C97.2225 27.4396 97.1722 27.3179 97.0677 27.2343C96.9632 27.1507 96.816 27.1126 96.6302 27.1126H95.6121V28.0706ZM95.6121 29.538H96.6922C97.1258 29.538 97.3425 29.367 97.3425 29.021C97.3425 28.6751 97.1258 28.5116 96.6922 28.5116H95.6121V29.538Z" fill="black"/>
<path d="M99.7233 29.979V27.2153H98.5349V26.6641H101.62V27.2153H100.424V29.979H99.7272H99.7233Z" fill="black"/>
<path d="M103.784 30.0398C103.444 30.0398 103.149 29.9676 102.898 29.8308C102.65 29.6901 102.456 29.4924 102.321 29.2377C102.185 28.983 102.116 28.6789 102.116 28.3253C102.116 27.9718 102.185 27.6677 102.321 27.413C102.456 27.1583 102.65 26.9606 102.898 26.8199C103.146 26.6793 103.44 26.6108 103.784 26.6108C104.129 26.6108 104.408 26.6831 104.655 26.8199C104.903 26.9606 105.097 27.1583 105.236 27.413C105.375 27.6677 105.441 27.9718 105.441 28.3253C105.441 28.6789 105.372 28.983 105.236 29.2377C105.097 29.4924 104.903 29.6901 104.655 29.8308C104.408 29.9714 104.117 30.0398 103.784 30.0398ZM103.784 29.5114C104.071 29.5114 104.299 29.4088 104.477 29.2073C104.655 29.0058 104.74 28.7093 104.74 28.3253C104.74 27.9414 104.651 27.6487 104.477 27.4472C104.303 27.2457 104.071 27.1469 103.784 27.1469C103.498 27.1469 103.262 27.2495 103.087 27.4472C102.913 27.6487 102.824 27.9414 102.824 28.3253C102.824 28.7093 102.913 29.0058 103.087 29.2073C103.262 29.4126 103.494 29.5114 103.784 29.5114Z" fill="black"/>
<path d="M106.452 29.979V26.6641H109.506V29.979H108.809V27.2153H107.148V29.979H106.452Z" fill="black"/>
<path d="M111.79 30.0397C111.554 30.0397 111.345 29.9941 111.159 29.9029C110.973 29.8116 110.83 29.69 110.722 29.5379C110.613 29.3859 110.559 29.211 110.559 29.0171C110.559 28.7738 110.621 28.5799 110.749 28.4393C110.876 28.2986 111.085 28.196 111.38 28.1352C111.674 28.0705 112.069 28.0401 112.564 28.0401H112.8V27.8653C112.8 27.6067 112.746 27.4205 112.634 27.3102C112.522 27.2 112.34 27.1392 112.088 27.1392C111.895 27.1392 111.701 27.1658 111.507 27.2228C111.314 27.2798 111.116 27.3672 110.911 27.4927L110.698 27.0099C110.873 26.8883 111.093 26.7894 111.356 26.7172C111.62 26.6449 111.871 26.6069 112.111 26.6069C112.572 26.6069 112.913 26.7134 113.133 26.9301C113.354 27.1468 113.466 27.4813 113.466 27.9375V29.9827H112.808V29.4315C112.727 29.6216 112.595 29.7698 112.421 29.8801C112.247 29.9903 112.038 30.0435 111.794 30.0435L111.79 30.0397ZM111.929 29.5493C112.177 29.5493 112.386 29.4619 112.553 29.2908C112.719 29.1198 112.8 28.9031 112.8 28.637V28.4545H112.572C112.235 28.4545 111.972 28.4697 111.778 28.5001C111.589 28.5305 111.449 28.5837 111.372 28.6598C111.291 28.7358 111.252 28.8384 111.252 28.9677C111.252 29.1388 111.314 29.2794 111.43 29.3859C111.55 29.4923 111.716 29.5455 111.929 29.5455V29.5493Z" fill="black"/>
<path d="M114.659 31.1995V26.6642H115.344V27.2269C115.441 27.0368 115.588 26.8847 115.785 26.7707C115.983 26.6566 116.211 26.5996 116.47 26.5996C116.768 26.5996 117.032 26.6718 117.256 26.8087C117.481 26.9494 117.651 27.147 117.775 27.4017C117.899 27.6564 117.957 27.9606 117.957 28.3141C117.957 28.6677 117.895 28.9718 117.775 29.2303C117.651 29.4888 117.481 29.6865 117.256 29.8233C117.032 29.9602 116.772 30.0324 116.47 30.0324C116.223 30.0324 115.998 29.9792 115.805 29.8728C115.607 29.7663 115.46 29.6218 115.359 29.4356V31.1957H114.663L114.659 31.1995ZM116.296 29.5078C116.587 29.5078 116.819 29.4052 116.989 29.2037C117.163 28.9984 117.248 28.7057 117.248 28.3217C117.248 27.9378 117.163 27.645 116.989 27.4436C116.815 27.2421 116.587 27.1432 116.296 27.1432C116.006 27.1432 115.774 27.2459 115.599 27.4436C115.425 27.645 115.34 27.9378 115.34 28.3217C115.34 28.7057 115.425 29.0022 115.599 29.2037C115.774 29.409 116.002 29.5078 116.296 29.5078Z" fill="black"/>
<path d="M118.967 29.979V26.6641H119.664V28.0098H120.229L121.275 26.6641H122.037L120.895 28.1505C121.007 28.1999 121.108 28.2759 121.201 28.3786C121.294 28.4812 121.395 28.6181 121.495 28.7967L122.192 29.979H121.445L120.856 28.9868C120.752 28.8119 120.647 28.6941 120.551 28.6333C120.45 28.5762 120.314 28.5458 120.14 28.5458H119.664V29.979H118.967Z" fill="black"/>
</g>
<defs>
<linearGradient id="paint0_linear_6547_11584" x1="8.75289" y1="-0.12165" x2="29.2576" y2="36.7271" gradientUnits="userSpaceOnUse">
<stop stop-color="#7C56EE"/>
<stop offset="1" stop-color="#5825D3"/>
</linearGradient>
<clipPath id="clip0_6547_11584">
<rect width="149.333" height="40" fill="white"/>
</clipPath>
</defs>
</svg>
