<svg width="32" height="32" viewBox="0 0 32 32" fill="none" xmlns="http://www.w3.org/2000/svg">
<path fill-rule="evenodd" clip-rule="evenodd" d="M21.82 25.612C19.586 27.12 16.896 28 14 28C6.274 28 0 21.726 0 14C0 6.274 6.274 0 14 0C21.726 0 28 6.274 28 14C28 16.876 27.13 19.552 25.64 21.778L29.868 26.004C30.924 27.06 30.924 28.776 29.868 29.832C28.812 30.888 27.096 30.888 26.04 29.832L21.82 25.612ZM14 4.9541C18.994 4.9541 23.046 9.0061 23.046 14.0001C23.046 18.9941 18.994 23.0461 14 23.0461C9.006 23.0461 4.954 18.9941 4.954 14.0001C4.954 9.0061 9.006 4.9541 14 4.9541Z" fill="#19D496"/>
</svg>
