<svg width="299" height="80" viewBox="0 0 299 80" fill="none" xmlns="http://www.w3.org/2000/svg">
<g clip-path="url(#clip0_6547_12152)">
<path d="M83.5028 78.2959V74.8745H85.0126C85.392 74.8745 85.6939 74.9657 85.8952 75.1406C86.0965 75.3155 86.2049 75.574 86.2049 75.8933C86.2049 76.1518 86.1353 76.3571 86.0036 76.5244C85.872 76.6917 85.6707 76.8057 85.4229 76.8589C85.5933 76.9121 85.7326 77.0338 85.841 77.2315L86.4217 78.2883H85.7249L85.121 77.1935C85.059 77.087 84.9894 77.011 84.9119 76.973C84.8345 76.935 84.7261 76.9121 84.6022 76.9121H84.1299V78.2807H83.4951L83.5028 78.2959ZM84.1377 76.4636H84.9119C85.3765 76.4636 85.601 76.2811 85.601 75.9085C85.601 75.536 85.3687 75.3611 84.9119 75.3611H84.1377V76.4636Z" fill="white"/>
<path d="M84.85 79.9993C82.9763 79.9993 81.451 78.5015 81.451 76.6615C81.451 74.8215 82.9763 73.3237 84.85 73.3237C86.7237 73.3237 88.249 74.8215 88.249 76.6615C88.249 78.5015 86.7237 79.9993 84.85 79.9993ZM84.85 73.9244C83.3092 73.9244 82.055 75.1561 82.055 76.6691C82.055 78.1821 83.3092 79.4138 84.85 79.4138C86.3908 79.4138 87.645 78.1821 87.645 76.6691C87.645 75.1561 86.3908 73.9244 84.85 73.9244Z" fill="white"/>
<path d="M0 3.33017V76.6698C0 78.5098 1.51753 80 3.39121 80H40.7255C45.4794 80 50.0552 79.2017 54.2981 77.7191C59.3617 75.9627 63.9607 73.256 67.8707 69.8118C69.0011 68.831 70.0696 67.7818 71.0684 66.6717C74.5834 62.8246 77.3398 58.3083 79.1283 53.3435C79.8948 51.207 80.491 48.9717 80.8781 46.6755C81.2497 44.5086 81.4433 42.2809 81.4433 40.0076V3.33017C81.4433 1.49021 79.9258 0 78.0521 0H3.39121C1.51753 0 0 1.49021 0 3.33017ZM37.3343 66.6641H16.9638C15.0901 66.6641 13.5726 65.1739 13.5726 63.334V56.666C13.5726 54.8261 15.0901 53.3359 16.9638 53.3359H37.3343C39.208 53.3359 40.7255 54.8261 40.7255 56.666V63.334C40.7255 65.1739 39.208 66.6641 37.3343 66.6641ZM50.9069 46.6679H16.9715C15.0979 46.6679 13.5803 45.1777 13.5803 43.3378V36.6698C13.5803 34.8299 15.0979 33.3397 16.9715 33.3397H50.9146C52.7883 33.3397 54.3059 34.8299 54.3059 36.6698V43.3378C54.3059 45.1777 52.7883 46.6679 50.9146 46.6679H50.9069ZM64.4795 26.6641H16.9715C15.0979 26.6641 13.5803 25.1739 13.5803 23.334V16.666C13.5803 14.8261 15.0979 13.3359 16.9715 13.3359H64.4872C66.3609 13.3359 67.8784 14.8261 67.8784 16.666V23.334C67.8784 25.1739 66.3609 26.6641 64.4872 26.6641H64.4795Z" fill="white"/>
<path d="M118.553 39.886C116.486 39.886 114.612 39.6198 112.947 39.0952C111.275 38.5706 109.835 37.8027 108.612 36.7991L109.696 34.3737C110.965 35.3317 112.297 36.0388 113.699 36.5102C115.092 36.974 116.71 37.2097 118.561 37.2097C120.806 37.2097 122.463 36.7991 123.547 35.9779C124.631 35.1568 125.173 34.0696 125.173 32.7238C125.173 31.6442 124.778 30.785 123.996 30.1464C123.214 29.5077 121.898 29.0059 120.055 28.6409L116.168 27.8654C113.822 27.3712 112.073 26.5729 110.919 25.4552C109.758 24.3376 109.185 22.8474 109.185 20.9846C109.185 19.4412 109.587 18.0954 110.4 16.9397C111.213 15.7841 112.336 14.8945 113.784 14.2558C115.232 13.6172 116.896 13.2979 118.793 13.2979C120.566 13.2979 122.208 13.5716 123.725 14.1266C125.243 14.6816 126.528 15.4723 127.573 16.4988L126.489 18.8557C125.366 17.8521 124.182 17.1222 122.935 16.666C121.689 16.2098 120.295 15.9818 118.747 15.9818C116.78 15.9818 115.208 16.4303 114.039 17.3275C112.87 18.2247 112.282 19.4032 112.282 20.8782C112.282 22.0566 112.646 22.9842 113.381 23.6761C114.117 24.3604 115.317 24.8622 116.989 25.1815L120.876 25.9875C123.392 26.5045 125.258 27.28 126.466 28.3216C127.674 29.3632 128.278 30.7774 128.278 32.5718C128.278 34.0163 127.883 35.2937 127.101 36.3961C126.319 37.4986 125.196 38.3577 123.741 38.9736C122.285 39.5894 120.558 39.8936 118.561 39.8936L118.553 39.886Z" fill="white"/>
<path d="M132.675 39.551V21.6761H135.625V24.6945C136.175 23.6149 136.934 22.7861 137.902 22.2159C138.877 21.638 140.008 21.3491 141.301 21.3491C144.142 21.3491 145.961 22.5656 146.759 24.991C147.309 23.8658 148.114 22.9762 149.19 22.3223C150.259 21.6761 151.497 21.3491 152.891 21.3491C156.925 21.3491 158.946 23.6985 158.946 28.4124V39.5586H155.918V28.5645C155.918 26.9222 155.624 25.7133 155.036 24.9454C154.447 24.1775 153.487 23.7897 152.14 23.7897C150.669 23.7897 149.5 24.3067 148.625 25.3332C147.75 26.3596 147.316 27.7357 147.316 29.454V39.5662H144.289V28.5721C144.289 26.9298 143.995 25.7209 143.406 24.953C142.818 24.1851 141.858 23.7973 140.511 23.7973C139.016 23.7973 137.84 24.3143 136.98 25.3408C136.121 26.3672 135.687 27.7433 135.687 29.4616V39.5738H132.66L132.675 39.551Z" fill="white"/>
<path d="M170.319 39.8857C169.073 39.8857 167.958 39.65 166.975 39.171C165.991 38.692 165.209 38.0382 164.636 37.2018C164.063 36.3655 163.777 35.4379 163.777 34.4039C163.777 33.1037 164.118 32.0773 164.807 31.317C165.496 30.5567 166.626 30.0093 168.206 29.6823C169.785 29.3478 171.945 29.1881 174.694 29.1881H175.886V28.0477C175.886 26.5271 175.569 25.4322 174.934 24.7555C174.299 24.0789 173.285 23.7443 171.883 23.7443C170.784 23.7443 169.731 23.8964 168.709 24.2005C167.687 24.5046 166.642 25.0064 165.565 25.6907L164.52 23.5238C165.465 22.8624 166.618 22.3377 167.981 21.9424C169.336 21.547 170.637 21.3569 171.883 21.3569C174.229 21.3569 175.964 21.9196 177.102 23.0448C178.232 24.1701 178.805 25.9264 178.805 28.3062V39.5588H175.964V36.4719C175.491 37.5288 174.764 38.3575 173.78 38.9734C172.797 39.5892 171.643 39.8933 170.327 39.8933L170.319 39.8857ZM170.807 37.6428C172.301 37.6428 173.525 37.1334 174.469 36.1146C175.414 35.0958 175.886 33.8032 175.886 32.237V31.1345H174.725C172.704 31.1345 171.117 31.2258 169.955 31.4083C168.794 31.5907 167.989 31.9101 167.524 32.3662C167.06 32.8224 166.835 33.4383 166.835 34.2214C166.835 35.225 167.191 36.0462 167.904 36.6848C168.616 37.3235 169.576 37.6428 170.799 37.6428H170.807Z" fill="white"/>
<path d="M184.411 39.5519V21.677H187.361V24.8779C188.336 22.7186 190.326 21.5325 193.346 21.312L194.429 21.2056L194.654 23.783L192.749 24.0035C191.031 24.148 189.722 24.6802 188.824 25.6002C187.926 26.5201 187.477 27.7747 187.477 29.3713V39.5595H184.411V39.5519Z" fill="white"/>
<path d="M206.051 39.8859C203.906 39.8859 202.304 39.3308 201.227 38.2132C200.151 37.0955 199.617 35.4837 199.617 33.3776V24.0029H196.063V21.684H199.617V16.2021H202.644V21.684H208.397V24.0029H202.644V33.0887C202.644 34.4876 202.946 35.5445 203.542 36.2668C204.139 36.9891 205.114 37.354 206.461 37.354C206.856 37.354 207.259 37.3084 207.654 37.2096C208.049 37.1107 208.412 37.0119 208.738 36.913L209.264 39.194C208.939 39.3612 208.467 39.5285 207.847 39.673C207.228 39.8174 206.624 39.8935 206.051 39.8935V39.8859Z" fill="white"/>
<path d="M211.657 39.5511V13.6245H229.449V18.0723H217.448V24.3981H228.628V28.846H217.448V39.5511H211.657Z" fill="white"/>
<path d="M239.313 39.9541C236.944 39.9541 235.217 39.3459 234.118 38.137C233.018 36.9205 232.476 35.1185 232.476 32.7083V13.6245H238.12V32.4878C238.12 34.4494 239.003 35.4302 240.776 35.4302C241.047 35.4302 241.318 35.415 241.581 35.3922C241.845 35.3694 242.1 35.3162 242.348 35.2478L242.27 39.5511C241.326 39.8172 240.342 39.9541 239.32 39.9541H239.313Z" fill="white"/>
<path d="M254.263 39.9539C252.096 39.9539 250.23 39.5662 248.673 38.7983C247.117 38.0228 245.917 36.9355 245.081 35.5289C244.245 34.1224 243.827 32.4573 243.827 30.5489C243.827 28.6405 244.229 27.0515 245.042 25.6373C245.855 24.2307 246.962 23.1206 248.371 22.3299C249.781 21.5316 251.406 21.1362 253.249 21.1362C255.913 21.1362 258.034 21.965 259.606 23.6148C261.178 25.2723 261.96 27.5076 261.96 30.3284V31.7274H249.215C249.417 33.1492 249.943 34.1832 250.803 34.837C251.662 35.4909 252.854 35.8102 254.372 35.8102C255.371 35.8102 256.377 35.6658 257.399 35.3693C258.421 35.0727 259.343 34.6242 260.163 34.0083L261.658 37.7262C260.736 38.4105 259.606 38.9579 258.274 39.3609C256.942 39.7639 255.603 39.9692 254.256 39.9692L254.263 39.9539ZM253.481 24.8009C252.289 24.8009 251.321 25.1583 250.586 25.8654C249.85 26.5801 249.393 27.5685 249.223 28.8458H257.299C257.151 26.1467 255.882 24.8009 253.489 24.8009H253.481Z" fill="white"/>
<path d="M274.789 39.9539C272.621 39.9539 270.755 39.5662 269.199 38.7983C267.642 38.0228 266.442 36.9355 265.606 35.5289C264.77 34.1224 264.352 32.4573 264.352 30.5489C264.352 28.6405 264.755 27.0515 265.568 25.6373C266.38 24.2307 267.488 23.1206 268.897 22.3299C270.306 21.5316 271.932 21.1362 273.775 21.1362C276.438 21.1362 278.559 21.965 280.131 23.6148C281.703 25.2723 282.485 27.5076 282.485 30.3284V31.7274H269.741C269.942 33.1492 270.469 34.1832 271.328 34.837C272.187 35.4909 273.38 35.8102 274.897 35.8102C275.896 35.8102 276.903 35.6658 277.925 35.3693C278.947 35.0727 279.868 34.6242 280.689 34.0083L282.183 37.7262C281.262 38.4105 280.131 38.9579 278.799 39.3609C277.468 39.7639 276.128 39.9692 274.781 39.9692L274.789 39.9539ZM274.007 24.8009C272.814 24.8009 271.847 25.1583 271.111 25.8654C270.376 26.5801 269.919 27.5685 269.748 28.8458H277.824C277.677 26.1467 276.407 24.8009 274.015 24.8009H274.007Z" fill="white"/>
<path d="M294.672 39.9541C289.515 39.9541 286.937 37.4907 286.937 32.5638V25.6526H283.46V21.4937H286.937V16.1943H292.581V21.4937H298.001V25.6526H292.581V32.3434C292.581 33.3698 292.821 34.1453 293.309 34.6623C293.797 35.1793 294.571 35.4378 295.647 35.4378C295.972 35.4378 296.313 35.3998 296.677 35.3238C297.041 35.2477 297.428 35.1565 297.854 35.0273L298.674 39.0721C298.148 39.3458 297.529 39.5587 296.808 39.7184C296.088 39.878 295.376 39.9541 294.679 39.9541H294.672Z" fill="white"/>
<path d="M114.442 61.7225V59.9585H108.604V53.3286H109.998V58.8713H113.149V53.3286H114.542V58.8713H115.619V61.7225H114.426H114.442Z" fill="white"/>
<path d="M117.33 59.9585V53.3286H118.599V58.1338L122.254 53.3286H123.431V59.9585H122.161V55.161L118.514 59.9585H117.337H117.33Z" fill="white"/>
<path d="M129.725 62.3987V58.9469C129.377 59.6996 128.773 60.0721 127.929 60.0721C127.441 60.0721 127.008 59.9277 126.636 59.6539C126.265 59.3726 125.97 58.9773 125.769 58.4603C125.56 57.9432 125.459 57.335 125.459 56.6431C125.459 55.9512 125.56 55.3278 125.769 54.8184C125.978 54.309 126.265 53.9136 126.636 53.6323C127.008 53.351 127.441 53.2141 127.929 53.2141C128.355 53.2141 128.719 53.3129 129.021 53.5106C129.323 53.7083 129.563 53.9896 129.725 54.3394V50.3857H131.119V54.3242C131.282 53.9744 131.522 53.7007 131.824 53.503C132.126 53.3053 132.49 53.2141 132.9 53.2141C133.388 53.2141 133.821 53.3586 134.193 53.6323C134.565 53.9136 134.859 54.309 135.068 54.8184C135.277 55.3278 135.377 55.936 135.377 56.6431C135.377 57.3502 135.277 57.9508 135.068 58.4603C134.859 58.9773 134.572 59.3726 134.201 59.6539C133.829 59.9353 133.395 60.0721 132.9 60.0721C132.071 60.0721 131.475 59.6996 131.119 58.9621V62.3987H129.725ZM128.301 59.0305C128.742 59.0305 129.098 58.8328 129.362 58.4298C129.625 58.0345 129.756 57.4338 129.756 56.6355C129.756 55.8372 129.625 55.2593 129.362 54.8564C129.098 54.4534 128.75 54.2557 128.301 54.2557C127.852 54.2557 127.519 54.4534 127.248 54.8564C126.977 55.2517 126.845 55.8448 126.845 56.6355C126.845 57.4262 126.977 58.0269 127.24 58.4298C127.503 58.8252 127.852 59.0305 128.301 59.0305ZM132.536 59.0305C132.977 59.0305 133.333 58.8328 133.597 58.4298C133.86 58.0345 133.992 57.4338 133.992 56.6355C133.992 55.8372 133.86 55.2593 133.597 54.8564C133.333 54.461 132.985 54.2557 132.536 54.2557C132.087 54.2557 131.746 54.4534 131.483 54.8564C131.228 55.2517 131.096 55.8448 131.096 56.6355C131.096 57.4262 131.228 58.0269 131.483 58.4298C131.739 58.8252 132.095 59.0305 132.536 59.0305Z" fill="white"/>
<path d="M137.414 62.3985V53.328H138.784V54.4532C138.978 54.0731 139.272 53.769 139.667 53.5409C140.062 53.3128 140.519 53.1987 141.037 53.1987C141.633 53.1987 142.16 53.3432 142.609 53.6169C143.058 53.8982 143.399 54.2936 143.646 54.803C143.894 55.3124 144.01 55.9206 144.01 56.6277C144.01 57.3348 143.887 57.9431 143.646 58.4601C143.399 58.9771 143.058 59.3725 142.609 59.6462C142.16 59.9199 141.641 60.0643 141.037 60.0643C140.542 60.0643 140.093 59.9579 139.706 59.745C139.311 59.5321 139.016 59.2432 138.815 58.8707V62.3909H137.422L137.414 62.3985ZM140.689 59.0151C141.27 59.0151 141.734 58.8098 142.075 58.4069C142.423 57.9963 142.594 57.4109 142.594 56.6429C142.594 55.875 142.423 55.2896 142.075 54.8866C141.726 54.4837 141.27 54.286 140.689 54.286C140.108 54.286 139.644 54.4913 139.295 54.8866C138.947 55.2896 138.776 55.875 138.776 56.6429C138.776 57.4109 138.947 58.0039 139.295 58.4069C139.644 58.8174 140.1 59.0151 140.689 59.0151Z" fill="white"/>
<path d="M148.973 60.0797C148.292 60.0797 147.703 59.9352 147.2 59.6615C146.705 59.3802 146.318 58.9848 146.047 58.4754C145.776 57.966 145.636 57.3578 145.636 56.6507C145.636 55.9436 145.776 55.3353 146.047 54.8259C146.318 54.3165 146.705 53.9212 147.2 53.6399C147.696 53.3585 148.284 53.2217 148.973 53.2217C149.662 53.2217 150.22 53.3661 150.715 53.6399C151.211 53.9212 151.598 54.3165 151.877 54.8259C152.155 55.3353 152.287 55.9436 152.287 56.6507C152.287 57.3578 152.148 57.966 151.877 58.4754C151.598 58.9848 151.211 59.3802 150.715 59.6615C150.22 59.9428 149.639 60.0797 148.973 60.0797ZM148.973 59.0229C149.546 59.0229 150.003 58.8176 150.359 58.4146C150.715 58.0116 150.886 57.4186 150.886 56.6507C150.886 55.8828 150.708 55.2973 150.359 54.8944C150.011 54.4914 149.546 54.2937 148.973 54.2937C148.4 54.2937 147.928 54.499 147.58 54.8944C147.231 55.2973 147.053 55.8828 147.053 56.6507C147.053 57.4186 147.231 58.0116 147.58 58.4146C147.928 58.8252 148.393 59.0229 148.973 59.0229Z" fill="white"/>
<path d="M154.316 59.9585V53.3286H157.761C158.589 53.3286 159.201 53.4807 159.58 53.7848C159.96 54.0889 160.153 54.5147 160.153 55.0697C160.153 55.4119 160.053 55.716 159.859 55.9745C159.666 56.233 159.395 56.4231 159.054 56.5371C159.48 56.636 159.805 56.826 160.037 57.1074C160.27 57.3887 160.386 57.7232 160.386 58.111C160.386 58.6812 160.169 59.1298 159.735 59.4643C159.302 59.7989 158.682 59.9585 157.885 59.9585H154.331H154.316ZM155.632 56.1418H157.668C158.047 56.1418 158.342 56.0581 158.543 55.8833C158.752 55.7084 158.853 55.4727 158.853 55.1762C158.853 54.8796 158.752 54.6363 158.543 54.4691C158.334 54.3018 158.04 54.2258 157.668 54.2258H155.632V56.1418ZM155.632 59.0766H157.792C158.659 59.0766 159.093 58.7344 159.093 58.0425C159.093 57.3507 158.659 57.0237 157.792 57.0237H155.632V59.0766Z" fill="white"/>
<path d="M165.256 60.0797C164.574 60.0797 163.986 59.9352 163.483 59.6615C162.987 59.3802 162.6 58.9848 162.329 58.4754C162.058 57.966 161.919 57.3578 161.919 56.6507C161.919 55.9436 162.058 55.3353 162.329 54.8259C162.6 54.3165 162.987 53.9212 163.483 53.6399C163.978 53.3585 164.567 53.2217 165.256 53.2217C165.945 53.2217 166.502 53.3661 166.998 53.6399C167.493 53.9212 167.881 54.3165 168.159 54.8259C168.438 55.3353 168.57 55.9436 168.57 56.6507C168.57 57.3578 168.43 57.966 168.159 58.4754C167.881 58.9848 167.493 59.3802 166.998 59.6615C166.502 59.9428 165.922 60.0797 165.256 60.0797ZM165.256 59.0229C165.829 59.0229 166.286 58.8176 166.642 58.4146C166.99 58.004 167.168 57.4186 167.168 56.6507C167.168 55.8828 166.99 55.2973 166.642 54.8944C166.293 54.4914 165.829 54.2937 165.256 54.2937C164.683 54.2937 164.211 54.499 163.862 54.8944C163.514 55.2973 163.336 55.8828 163.336 56.6507C163.336 57.4186 163.514 58.0116 163.862 58.4146C164.211 58.8252 164.675 59.0229 165.256 59.0229Z" fill="white"/>
<path d="M170.59 59.9583V53.3284H171.86V58.1335L175.515 53.3284H176.691V59.9583H175.422V55.1607L171.775 59.9583H170.598H170.59ZM173.633 52.492C173.037 52.492 172.518 52.3323 172.092 52.0206C171.667 51.7089 171.365 51.2527 171.202 50.6521L171.961 50.3936C172.123 50.8345 172.348 51.1615 172.619 51.3744C172.89 51.5796 173.231 51.6861 173.649 51.6861C174.067 51.6861 174.415 51.5872 174.678 51.3896C174.942 51.1919 175.174 50.865 175.375 50.4088L176.111 50.6521C175.886 51.2983 175.561 51.7621 175.127 52.051C174.694 52.34 174.198 52.4844 173.633 52.4844V52.492Z" fill="white"/>
<path d="M184.178 60.0795C183.706 60.0795 183.288 59.9882 182.916 59.8058C182.545 59.6233 182.258 59.38 182.041 59.0759C181.825 58.7717 181.716 58.422 181.716 58.0342C181.716 57.5476 181.84 57.1599 182.096 56.8786C182.351 56.5973 182.769 56.392 183.358 56.2703C183.946 56.1411 184.736 56.0802 185.727 56.0802H186.199V55.7305C186.199 55.2135 186.091 54.8409 185.866 54.6204C185.642 54.4 185.278 54.2783 184.775 54.2783C184.387 54.2783 184 54.3315 183.613 54.4456C183.226 54.5596 182.831 54.7345 182.421 54.9854L181.995 54.0198C182.343 53.7765 182.785 53.5788 183.311 53.4344C183.838 53.2899 184.341 53.2139 184.821 53.2139C185.742 53.2139 186.424 53.4268 186.865 53.8601C187.306 54.2935 187.531 54.9626 187.531 55.875V59.9654H186.215V58.863C186.052 59.2431 185.789 59.5397 185.44 59.7602C185.092 59.9806 184.674 60.0871 184.186 60.0871L184.178 60.0795ZM184.457 59.0987C184.953 59.0987 185.371 58.9238 185.704 58.5817C186.037 58.2395 186.199 57.8062 186.199 57.2739V56.909H185.742C185.069 56.909 184.542 56.9394 184.155 57.0002C183.776 57.061 183.497 57.1675 183.342 57.3196C183.18 57.4716 183.102 57.6769 183.102 57.9354C183.102 58.2775 183.226 58.5589 183.458 58.7717C183.698 58.9846 184.031 59.0911 184.457 59.0911V59.0987Z" fill="white"/>
<path d="M189.908 59.9585V53.3286H193.353C194.182 53.3286 194.793 53.4807 195.173 53.7848C195.552 54.0889 195.746 54.5147 195.746 55.0697C195.746 55.4119 195.645 55.716 195.451 55.9745C195.25 56.233 194.987 56.4231 194.646 56.5371C195.072 56.636 195.397 56.826 195.63 57.1074C195.862 57.3887 195.978 57.7232 195.978 58.111C195.978 58.6812 195.761 59.1298 195.328 59.4643C194.894 59.7989 194.275 59.9585 193.477 59.9585H189.923H189.908ZM191.224 56.1418H193.26C193.64 56.1418 193.934 56.0581 194.135 55.8833C194.344 55.7084 194.445 55.4727 194.445 55.1762C194.445 54.8796 194.344 54.6363 194.135 54.4691C193.926 54.3018 193.632 54.2258 193.26 54.2258H191.224V56.1418ZM191.224 59.0766H193.384C194.251 59.0766 194.685 58.7344 194.685 58.0425C194.685 57.3507 194.251 57.0237 193.384 57.0237H191.224V59.0766Z" fill="white"/>
<path d="M199.447 59.9585V54.4311H197.07V53.3286H203.24V54.4311H200.848V59.9585H199.454H199.447Z" fill="white"/>
<path d="M207.568 60.0797C206.887 60.0797 206.299 59.9352 205.795 59.6615C205.3 59.3802 204.913 58.9848 204.642 58.4754C204.371 57.966 204.231 57.3578 204.231 56.6507C204.231 55.9436 204.371 55.3353 204.642 54.8259C204.913 54.3165 205.3 53.9212 205.795 53.6399C206.291 53.3585 206.879 53.2217 207.568 53.2217C208.258 53.2217 208.815 53.3661 209.311 53.6399C209.806 53.9212 210.193 54.3165 210.472 54.8259C210.751 55.3353 210.882 55.9436 210.882 56.6507C210.882 57.3578 210.743 57.966 210.472 58.4754C210.193 58.9848 209.806 59.3802 209.311 59.6615C208.815 59.9428 208.234 60.0797 207.568 60.0797ZM207.568 59.0229C208.141 59.0229 208.598 58.8176 208.954 58.4146C209.311 58.0116 209.481 57.4186 209.481 56.6507C209.481 55.8828 209.303 55.2973 208.954 54.8944C208.606 54.4914 208.141 54.2937 207.568 54.2937C206.996 54.2937 206.523 54.499 206.175 54.8944C205.826 55.2973 205.648 55.8828 205.648 56.6507C205.648 57.4186 205.826 58.0116 206.175 58.4146C206.523 58.8252 206.988 59.0229 207.568 59.0229Z" fill="white"/>
<path d="M212.903 59.9585V53.3286H219.012V59.9585H217.618V54.4311H214.297V59.9585H212.903Z" fill="white"/>
<path d="M223.58 60.0795C223.108 60.0795 222.69 59.9882 222.318 59.8058C221.946 59.6233 221.66 59.38 221.443 59.0759C221.226 58.7717 221.118 58.422 221.118 58.0342C221.118 57.5476 221.242 57.1599 221.497 56.8786C221.753 56.5973 222.171 56.392 222.759 56.2703C223.348 56.1411 224.137 56.0802 225.128 56.0802H225.601V55.7305C225.601 55.2135 225.492 54.8409 225.268 54.6204C225.043 54.4 224.679 54.2783 224.176 54.2783C223.789 54.2783 223.402 54.3315 223.015 54.4456C222.628 54.5596 222.233 54.7345 221.822 54.9854L221.397 54.0198C221.745 53.7765 222.186 53.5788 222.713 53.4344C223.239 53.2899 223.743 53.2139 224.223 53.2139C225.144 53.2139 225.825 53.4268 226.267 53.8601C226.708 54.2935 226.933 54.9626 226.933 55.875V59.9654H225.616V58.863C225.454 59.2431 225.19 59.5397 224.842 59.7602C224.494 59.9806 224.076 60.0871 223.588 60.0871L223.58 60.0795ZM223.859 59.0987C224.354 59.0987 224.772 58.9238 225.105 58.5817C225.438 58.2395 225.601 57.8062 225.601 57.2739V56.909H225.144C224.47 56.909 223.944 56.9394 223.557 57.0002C223.177 57.061 222.899 57.1675 222.744 57.3196C222.581 57.4716 222.504 57.6769 222.504 57.9354C222.504 58.2775 222.628 58.5589 222.86 58.7717C223.1 58.9846 223.433 59.0911 223.859 59.0911V59.0987Z" fill="white"/>
<path d="M229.317 62.3985V53.328H230.688V54.4532C230.881 54.0731 231.175 53.769 231.57 53.5409C231.965 53.3128 232.422 53.1987 232.941 53.1987C233.537 53.1987 234.063 53.3432 234.512 53.6169C234.961 53.8982 235.302 54.2936 235.55 54.803C235.798 55.3124 235.914 55.9206 235.914 56.6277C235.914 57.3348 235.79 57.9431 235.55 58.4601C235.302 58.9771 234.961 59.3725 234.512 59.6462C234.063 59.9199 233.545 60.0643 232.941 60.0643C232.445 60.0643 231.996 59.9579 231.609 59.745C231.214 59.5321 230.92 59.2432 230.719 58.8707V62.3909H229.325L229.317 62.3985ZM232.592 59.0151C233.173 59.0151 233.637 58.8098 233.978 58.4069C234.327 57.9963 234.497 57.4109 234.497 56.6429C234.497 55.875 234.327 55.2896 233.978 54.8866C233.63 54.4837 233.173 54.286 232.592 54.286C232.012 54.286 231.547 54.4913 231.199 54.8866C230.85 55.2896 230.68 55.875 230.68 56.6429C230.68 57.4109 230.85 58.0039 231.199 58.4069C231.547 58.8174 232.004 59.0151 232.592 59.0151Z" fill="white"/>
<path d="M237.935 59.9585V53.3286H239.328V56.0201H240.459L242.549 53.3286H244.074L241.79 56.3014C242.015 56.4003 242.216 56.5523 242.402 56.7576C242.588 56.9629 242.789 57.2366 242.99 57.594L244.384 59.9585H242.89L241.713 57.9741C241.504 57.6244 241.295 57.3887 241.101 57.267C240.9 57.153 240.629 57.0922 240.28 57.0922H239.328V59.9585H237.935Z" fill="white"/>
</g>
<defs>
<clipPath id="clip0_6547_12152">
<rect width="298.667" height="80" fill="white"/>
</clipPath>
</defs>
</svg>
