<svg width="16" height="16" viewBox="0 0 16 16" fill="none" xmlns="http://www.w3.org/2000/svg">
<path fill-rule="evenodd" clip-rule="evenodd" d="M7.597 2.01123C7.369 2.01123 7.17 2.13923 7.07 2.32823C7.069 2.33023 7.066 2.33423 7.066 2.33423C7.066 2.33423 7.065 2.33723 7.062 2.34223C6.786 2.84423 6.168 3.04623 5.649 2.80323C5.13 2.56023 4.888 1.95623 5.097 1.42323C5.186 1.19523 5.235 1.07023 5.235 1.07023C5.235 1.07023 5.236 1.06923 5.236 1.06823C5.573 0.439231 6.237 0.0112305 7 0.0112305H14C15.104 0.0112305 16 0.90723 16 2.01123V11.5002C16 13.2682 14.401 14.0682 14.401 14.0682L11.717 15.8592L11.716 15.8602C11.355 16.0552 10.917 16.0462 10.565 15.8352C10.212 15.6242 9.997 15.2432 9.998 14.8332C9.999 14.7362 9.999 14.6782 9.999 14.6782V14.0112H6.993C6.23 14.0112 5.566 13.5822 5.229 12.9532C5.228 12.9532 5.228 12.9522 5.228 12.9522C5.228 12.9522 5.179 12.8272 5.09 12.5992C4.881 12.0652 5.122 11.4612 5.641 11.2182C6.16 10.9762 6.779 11.1772 7.055 11.6792L7.063 11.6942C7.163 11.8822 7.361 12.0112 7.59 12.0112H9.999L10 9.01123V5.70323C10 3.90623 11.503 3.24023 11.503 3.24023L13.925 2.01123H7.597ZM4.586 6.01123L4.293 5.71823C3.903 5.32823 3.903 4.69423 4.293 4.30423C4.683 3.91323 5.317 3.91323 5.707 4.30423L7.693 6.28923C7.698 6.29423 7.702 6.29923 7.707 6.30423C7.848 6.44423 7.938 6.61623 7.977 6.79623C7.989 6.85223 7.997 6.91023 7.999 6.96823L8 6.99923V7.04223L7.999 7.04323V7.06523L7.998 7.06623V7.07723C7.996 7.11123 7.992 7.14523 7.986 7.17823L7.985 7.18223V7.18523L7.984 7.18823V7.19223L7.983 7.19423V7.19523C7.948 7.38623 7.856 7.57023 7.707 7.71823C7.702 7.72323 7.698 7.72823 7.693 7.73223L5.707 9.71823C5.317 10.1082 4.683 10.1082 4.293 9.71823C3.903 9.32823 3.903 8.69423 4.293 8.30423L4.586 8.01123H1C0.448 8.01123 0 7.56323 0 7.01123C0 6.45923 0.448 6.01123 1 6.01123H4.586Z" fill="#160934"/>
</svg>
