<svg width="32" height="32" viewBox="0 0 32 32" fill="none" xmlns="http://www.w3.org/2000/svg">
<path fill-rule="evenodd" clip-rule="evenodd" d="M16 20C18.208 20 20 21.792 20 24C20 26.208 18.208 28 16 28C13.792 28 12 26.208 12 24C12 21.792 13.792 20 16 20ZM15.948 16C15.93 16 15.914 16 15.896 16C14.732 16.022 13.586 16.282 12.534 16.788C11.55 17.262 10.666 17.94 9.952 18.766C9.588 19.186 9.27 19.642 9 20.126C9 20.126 8.992 20.13 8.984 20.142C8.442 21.024 7.026 20.982 6.204 20.292C5.382 19.604 5.236 18.396 5.868 17.53C6.108 17.2 6.24 17.02 6.24 17.02C6.4 16.796 6.568 16.578 6.742 16.368C7.784 15.106 9.082 14.06 10.538 13.314C11.632 12.754 12.814 12.364 14.026 12.162C14.578 12.07 15.134 12.022 15.692 12.004C15.794 12.002 15.898 12 16 12H16.078C16.154 12.002 16.232 12.002 16.308 12.004C16.866 12.022 17.422 12.07 17.974 12.162C19.186 12.364 20.368 12.754 21.462 13.314C22.918 14.06 24.216 15.106 25.258 16.368C25.432 16.578 25.6 16.796 25.76 17.02C25.76 17.02 25.892 17.2 26.132 17.53C26.764 18.396 26.618 19.604 25.796 20.292C24.974 20.982 23.558 21.024 23.016 20.142C23.008 20.13 23 20.126 23 20.126C22.73 19.642 22.412 19.186 22.048 18.766C21.334 17.94 20.45 17.262 19.466 16.788C18.414 16.282 17.268 16.022 16.104 16C16.07 16 16.034 16 16 16H15.948ZM15.896 8C15.862 8 15.828 8 15.792 8.002C15.046 8.016 14.302 8.072 13.562 8.184C12.07 8.412 10.612 8.856 9.244 9.494C7.026 10.53 5.068 12.08 3.536 13.978C3.536 13.978 3.534 13.978 3.532 13.98C2.872 14.804 1.602 14.666 0.841999 13.97C0.081999 13.274 -0.026001 12.114 0.595999 11.292C0.759999 11.074 0.849999 10.954 0.849999 10.954C2.694 8.818 4.982 7.07 7.55 5.87C9.262 5.07 11.09 4.516 12.958 4.23C13.88 4.09 14.81 4.02 15.742 4.002C15.872 4 15.936 4 16 4H16.104C16.144 4 16.194 4 16.258 4.002C17.19 4.02 18.12 4.09 19.042 4.23C20.91 4.516 22.738 5.07 24.45 5.87C27.018 7.07 29.306 8.818 31.15 10.954C31.15 10.954 31.24 11.074 31.404 11.292C32.026 12.114 31.918 13.274 31.158 13.97C30.398 14.666 29.128 14.804 28.468 13.98C28.466 13.978 28.464 13.978 28.464 13.978C26.932 12.08 24.974 10.53 22.756 9.494C21.388 8.856 19.93 8.412 18.438 8.184C17.698 8.072 16.954 8.016 16.208 8.002C16.138 8 16.068 8 16 8H15.896Z" fill="#19D496"/>
</svg>
